<?xml version="1.0" standalone="no"?><!DOCTYPE svg PUBLIC "-//W3C//DTD SVG 1.1//EN" "http://www.w3.org/Graphics/SVG/1.1/DTD/svg11.dtd"><svg t="1526897215802" class="icon" style="" viewBox="0 0 1024 1024" version="1.1" xmlns="http://www.w3.org/2000/svg" p-id="1471" xmlns:xlink="http://www.w3.org/1999/xlink" width="200" height="200"><defs><style type="text/css"></style></defs><path d="M494.937766 768.496114l0 127.639422-94.803828 0c-36.477174 0-63.932232 27.455058-63.932232 63.932232l0 47.954288c0 8.817533 7.16041 15.977943 15.977943 15.977943l319.661159 0c8.817533 0 15.977943-7.16041 15.977943-15.977943l0-45.560666c0-37.213674-28.089265-66.325855-63.932232-66.325855l-96.992868 0 0-127.639422c127.005214-8.878908 225.941622-113.809602 225.941622-241.796815l0-60.31111c0-9.431283-7.630951-17.062234-17.062234-17.062234s-17.062234 7.671868-17.062234 17.103151l0 60.31111c0 114.975726-92.696622 208.49068-206.690348 208.49068s-206.690348-93.535412-206.690348-208.49068l0-60.31111c0-9.431283-7.630951-17.062234-17.062234-17.062234s-17.062234 7.630951-17.062234 17.062234l0 60.31111c0 127.966755 98.936407 232.87699 223.773041 241.755899zM655.842407 962.461391l0 29.562264-287.705272 0 0-31.976345c0-18.821649 13.134238-31.976345 31.976345-31.976345l223.773041 0c18.228358 0 31.976345 14.770903 31.976345 34.369968zM512 0c-79.910175 0-144.926698 65.814397-144.926698 146.747488l0 379.972269c0 80.912633 65.016522 146.747488 144.926698 146.747488s144.926698-65.855313 142.758116-146.747488l0-379.972269c2.168581-80.933091-62.847941-146.747488-142.758116-146.747488zM622.80223 526.699299c0 62.070525-49.713703 112.582103-110.80223 112.582103s-112.970811-50.470661-112.970811-112.582103l0-379.951811c0-62.070525 51.882285-112.582103 112.970811-112.582103s110.80223 50.470661 110.80223 112.582103l0 379.951811z" p-id="1472" fill="#ffffff"></path></svg>